<svg xmlns="http://www.w3.org/2000/svg" width="395" height="103" viewBox="0 0 395 103" shape-rendering="geometricPrecision">
  <path d="M 287 78 L 316 78 L 341 43 L 366 78 L 395 78 L 356 23 L 326 23 Z" fill="#000000" stroke="none" fill-rule="evenodd"/>
  <path d="M 236 103 L 265 103 L 321 23 L 293 23 L 268 58 L 242 23 L 214 23 L 253 78 Z" fill="#000000" stroke="none" fill-rule="evenodd"/>
  <path d="M 180 23 L 219 78 L 248 78 L 209 23 Z" fill="#000000" stroke="none" fill-rule="evenodd"/>
  <path d="M 147 23 L 186 78 L 215 78 L 176 23 Z" fill="#000000" stroke="none" fill-rule="evenodd"/>
  <path d="M 73 78 L 102 78 L 127 43 L 153 78 L 181 78 L 142 23 L 113 23 Z" fill="#000000" stroke="none" fill-rule="evenodd"/>
  <path d="M 0 23 L 39 78 L 69 78 L 108 23 L 79 23 L 54 58 L 29 23 Z" fill="#000000" stroke="none" fill-rule="evenodd"/>
  <path d="M149 0 L177 0 L190 18 L162 18 Z" fill="#000000" stroke="none" fill-rule="evenodd"/>
  <path d="M182 0 L211 0 L223 18 L195 18 Z" fill="#ed1c24" stroke="none" fill-rule="evenodd"/>
</svg>
